<svg width="131" height="116" viewBox="0 0 131 116" fill="none" xmlns="http://www.w3.org/2000/svg">
<path d="M73.52 93.7212C72.96 92.5612 72.08 91.4812 70.84 90.5612C62.96 84.7612 35.32 102.241 35.32 102.241L0 36.5612C0 36.5612 30.96 21.5212 38.72 28.9612L73.52 93.6812V93.7212Z" fill="#FEB74C"/>
<path d="M51.5601 86.2405L55.3601 93.2805C58.8801 91.5205 62.8401 90.4805 67.0401 90.4805C73.6801 90.4805 79.7201 93.0005 84.3201 97.1205C86.4001 95.2805 88.4401 93.5605 90.4801 91.9205C84.3601 86.0805 76.1201 82.4805 67.0401 82.4805C61.4801 82.4805 56.2401 83.8405 51.6001 86.2405H51.5601Z" fill="#407AFE"/>
<path d="M67.0001 70.4805C59.4001 70.4805 52.2001 72.3605 45.8801 75.6805L49.6801 82.7205C54.8801 80.0405 60.7601 78.4805 67.0401 78.4805C77.4001 78.4805 86.8001 82.6805 93.6801 89.4405C95.9201 87.7605 98.1201 86.2005 100.28 84.7605C91.8801 76.0005 80.1201 70.4805 67.0401 70.4805H67.0001Z" fill="#407AFE"/>
<path d="M57.24 96.7995L61.04 103.88C62.84 103 64.88 102.48 67 102.48C70.28 102.48 73.28 103.68 75.68 105.6C77.56 103.6 79.44 101.68 81.36 99.8795C77.52 96.5595 72.48 94.5195 67 94.5195C63.48 94.5195 60.16 95.3595 57.24 96.8395V96.7995Z" fill="#407AFE"/>
<path d="M62.9202 107.4L67.2402 115.44C69.1202 113 71.0402 110.72 73.0002 108.52C71.3202 107.28 69.2802 106.48 67.0402 106.48C65.5602 106.48 64.2002 106.8 62.9602 107.36L62.9202 107.4Z" fill="#407AFE"/>
<path d="M67.0001 42.48C90.9601 42.48 112.24 54 125.8 71.72C128.72 70.68 130.52 70.2 130.52 70.2L92.7601 0C49.2801 19.48 29.3601 44.96 29.3601 44.96L32.6401 51.04C42.9201 45.6 54.6001 42.52 67.0001 42.52V42.48Z" fill="#407AFE"/>
<path d="M67 46.4805C55.28 46.4805 44.24 49.4005 34.52 54.5205L38.32 61.5605C46.92 57.0405 56.68 54.4805 67.04 54.4805C86.04 54.4805 103.04 63.0805 114.44 76.6005C117.24 75.2005 119.76 74.0805 121.96 73.2005C109.12 56.9605 89.32 46.4805 67.04 46.4805H67Z" fill="#407AFE"/>
<path d="M67.0002 58.4814C57.3202 58.4814 48.2002 60.8814 40.2002 65.0814L44.0002 72.1214C50.8802 68.5214 58.7202 66.4414 67.0402 66.4414C81.5202 66.4414 94.5602 72.6814 103.68 82.5214C106.16 81.0014 108.52 79.6414 110.76 78.4414C100.12 66.2014 84.4802 58.4414 67.0402 58.4414L67.0002 58.4814Z" fill="#407AFE"/>
<path d="M67.24 115.438L54.8 92.238C61.28 89.678 67.64 88.238 70.84 90.558C78.72 96.358 71.92 108.318 67.24 115.398V115.438Z" fill="#74BDC4"/>
<path d="M83.3599 75.6417C95.7532 75.6417 105.8 65.595 105.8 53.2017C105.8 40.8084 95.7532 30.7617 83.3599 30.7617C70.9667 30.7617 60.9199 40.8084 60.9199 53.2017C60.9199 65.595 70.9667 75.6417 83.3599 75.6417Z" fill="white"/>
<path d="M96.0801 51.4813L77.8401 40.9613C76.5201 40.2013 74.8401 41.1613 74.8401 42.6813V63.7613C74.8401 65.2813 76.5201 66.2813 77.8401 65.4813L96.0801 54.9613C97.4001 54.2013 97.4001 52.2813 96.0801 51.4813Z" fill="#FF0000"/>
<path d="M73.52 93.7212C72.96 92.5612 72.08 91.4812 70.84 90.5612C62.96 84.7612 35.32 102.241 35.32 102.241L0 36.5612C0 36.5612 30.96 21.5212 38.72 28.9612L73.52 93.6812V93.7212Z" fill="#FEB74C"/>
</svg>
