<svg width="495" height="116" viewBox="0 0 495 116" fill="none" xmlns="http://www.w3.org/2000/svg">
<g clip-path="url(#clip0_79_326)">
<path d="M461.451 99.3844C459.985 99.3844 458.901 99.0621 458.198 98.4174C457.495 97.8313 457.143 96.8643 457.143 95.5163C457.143 92.8789 458.579 91.5603 461.451 91.5603H469.363C472.059 91.5603 473.465 90.183 473.582 87.4284V32.0438H418.374C416.967 32.0438 415.941 31.7507 415.297 31.1647C414.652 30.5786 414.33 29.6702 414.33 28.4394C414.33 27.2672 414.652 26.3881 415.297 25.802C415.941 25.2159 416.967 24.9229 418.374 24.9229H489.934C492.747 24.9229 494.154 26.0951 494.154 28.4394C494.154 29.6702 493.802 30.5786 493.099 31.1647C492.454 31.7507 491.399 32.0438 489.934 32.0438H481.055V89.4504C481.289 93.0255 480.586 95.6335 478.945 97.2745C477.304 98.9156 474.696 99.6189 471.121 99.3844H461.451ZM430.506 78.1097C427.634 78.1097 425.553 77.5236 424.264 76.3515C423.033 75.1207 422.535 73.128 422.769 70.3734V51.4724C422.769 48.6006 423.355 46.5493 424.528 45.3185C425.758 44.0291 427.751 43.5017 430.506 43.7361H451.692C454.564 43.7361 456.645 44.3515 457.934 45.5822C459.223 46.7544 459.751 48.7178 459.517 51.4724V70.3734C459.517 73.2452 458.901 75.3258 457.67 76.6152C456.44 77.846 454.447 78.3441 451.692 78.1097H430.506ZM448.791 71.3405C451.136 71.3405 452.366 70.1097 452.484 67.6482V54.1976C452.484 51.8533 451.253 50.6225 448.791 50.5053H433.495C431.092 50.5053 429.832 51.7361 429.714 54.1976V67.6482C429.714 69.9925 430.974 71.2233 433.495 71.3405H448.791Z" fill="#07255E"/>
<path d="M371.692 31.9564C370.696 34.1835 369.407 36.7622 367.824 39.6926V95.7805C367.824 98.5937 366.593 100 364.132 100C361.67 100 360.44 98.5937 360.44 95.7805V50.7695C356.161 56.4545 351.385 61.612 346.11 66.2421C340.894 70.8721 335.59 74.7109 330.198 77.7586C329.436 78.1688 328.674 78.3739 327.912 78.3739C327.267 78.3739 326.681 78.1981 326.154 77.8465C325.626 77.4948 325.216 76.9967 324.923 76.352C324.63 75.6487 324.484 75.0626 324.484 74.5937C324.484 73.363 325.216 72.308 326.681 71.4289C334.593 66.5644 341.773 60.7915 348.22 54.1102C354.667 47.3703 359.853 39.9857 363.78 31.9564H328.967C327.619 31.9564 326.623 31.6926 325.978 31.1652C325.392 30.5791 325.099 29.6706 325.099 28.4399C325.099 26.1542 326.388 25.0113 328.967 25.0113H399.297C401.934 25.0113 403.253 26.1542 403.253 28.4399C403.253 30.7842 401.934 31.9564 399.297 31.9564H371.692ZM402.549 72.1322C403.429 73.0699 403.868 74.0369 403.868 75.0333C403.868 75.9124 403.516 76.7622 402.813 77.5827C402.051 78.4619 401.172 78.9014 400.176 78.9014C399.121 78.9014 398.095 78.4032 397.099 77.4069C389.128 69.319 382.007 62.6084 375.736 57.275C374.623 56.3373 374.066 55.3703 374.066 54.3739C374.066 53.6706 374.33 53.026 374.857 52.4399C375.56 51.678 376.322 51.297 377.143 51.297C377.905 51.297 378.784 51.6487 379.78 52.352C383.179 54.8721 387.106 58.0369 391.56 61.8465C396.015 65.5974 399.678 69.026 402.549 72.1322Z" fill="#07255E"/>
<path d="M239.297 71.5165C236.894 71.5165 235.692 70.1099 235.692 67.2967V60.5275C235.692 58.1245 236.161 56.3663 237.099 55.2527C238.037 54.1392 239.56 53.5531 241.67 53.4945H242.901L241.055 28.2637C240.996 26.7985 241.319 25.5971 242.022 24.6593C242.784 23.663 243.927 22.989 245.451 22.6374L254.505 21.1429L257.319 20.4396C257.553 20.381 257.875 20.293 258.286 20.1758C258.755 20.0586 259.135 20 259.429 20C261.245 20 262.154 21.0256 262.154 23.0769C262.154 24.0147 261.333 24.8059 259.692 25.4505C258.051 26.0366 255.297 26.5641 251.429 27.033C250.139 27.2088 249.201 27.5311 248.615 28C248.088 28.4103 247.853 29.0256 247.912 29.8462L248 32.3077H258.725C260.894 32.3077 261.978 33.2161 261.978 35.033C261.978 36.8498 260.894 37.7582 258.725 37.7582H248.44L248.791 42.5934H258.725C260.894 42.5934 261.978 43.5311 261.978 45.4066C261.978 47.2234 260.894 48.1319 258.725 48.1319H249.143L249.494 53.4945H299.077L299.429 48.1319H288.879C286.886 48.1319 285.89 47.2234 285.89 45.4066C285.89 43.5311 286.886 42.5934 288.879 42.5934H299.868L300.044 37.7582H288.879C287.824 37.7582 287.062 37.5531 286.593 37.1429C286.125 36.674 285.89 35.9707 285.89 35.033C285.89 33.2161 286.886 32.3077 288.879 32.3077H300.659V30.4615C300.659 29.4652 300.483 28.7912 300.132 28.4396C299.78 28.0293 299.135 27.8242 298.198 27.8242H288.088C286.212 27.8242 285.275 26.9744 285.275 25.2747C285.275 24.337 285.48 23.663 285.89 23.2527C286.359 22.7839 287.092 22.5495 288.088 22.5495H300.571C305.143 22.5495 307.429 24.3077 307.429 27.8242L305.582 53.4945H306.549C310.828 53.4945 312.791 55.8388 312.44 60.5275V67.6484C312.44 70.4029 311.267 71.7802 308.923 71.7802C307.751 71.7802 306.872 71.4579 306.286 70.8132C305.7 70.1685 305.407 69.1136 305.407 67.6484V62.1978C305.407 60.381 304.44 59.4139 302.505 59.2967H245.802C243.927 59.2967 242.93 60.2637 242.813 62.1978V67.3846C242.813 70.1392 241.641 71.5165 239.297 71.5165ZM265.582 36.4396C263.883 36.4396 263.033 35.5897 263.033 33.8901C263.033 32.8938 264.762 31.37 268.22 29.3187L270.154 28.2637C266.462 25.685 264.615 24.0147 264.615 23.2527C264.615 22.5495 264.82 21.9927 265.231 21.5824C265.7 21.1722 266.344 20.967 267.165 20.967C267.868 20.967 270.212 22.3443 274.198 25.0989L276.747 22.4615C277.978 21.1136 279.092 20.4396 280.088 20.4396C280.967 20.4396 281.612 20.6447 282.022 21.0549C282.491 21.4652 282.725 22.022 282.725 22.7253C282.725 23.7216 281.26 25.5092 278.33 28.0879L279.297 28.6154C281.758 30.3736 282.989 31.8388 282.989 33.011C282.989 33.8901 282.755 34.5641 282.286 35.033C281.817 35.5018 281.172 35.7363 280.352 35.7363C279.531 35.7363 278.535 35.1795 277.363 34.0659L274.286 31.1648C269.831 34.6813 266.93 36.4396 265.582 36.4396ZM263.297 50.2418C263.297 49.2454 265.143 47.7216 268.835 45.6703L270.593 44.6154L269.626 44C266.637 42.0659 265.143 40.6886 265.143 39.8681C265.143 38.3443 265.993 37.5824 267.692 37.5824C268.22 37.5824 269.187 38.022 270.593 38.9011L273.319 40.4835L274.725 41.4506L277.099 39.1648C278.505 37.8755 279.56 37.2308 280.264 37.2308C282.081 37.2308 282.989 38.022 282.989 39.6044C282.989 40.6593 281.641 42.2418 278.945 44.3516C282.403 46.696 284.132 48.4542 284.132 49.6264C284.132 51.4432 283.253 52.3517 281.494 52.3517C280.791 52.3517 279.795 51.7949 278.505 50.6813L274.725 47.5165C272.615 49.1575 270.769 50.4469 269.187 51.3846C267.604 52.2637 266.491 52.7033 265.846 52.7033C264.146 52.7033 263.297 51.8828 263.297 50.2418ZM310.066 79.2528C312.469 79.2528 313.67 80.2198 313.67 82.1538C313.67 84.0879 312.469 85.0549 310.066 85.0549H276.659V91.2967C276.659 94.4615 275.985 96.7473 274.637 98.1538C273.289 99.5604 271.15 100.147 268.22 99.9121H262.857C261.392 99.9121 260.308 99.6484 259.604 99.1209C258.96 98.5934 258.637 97.7436 258.637 96.5714C258.637 94.4029 260.044 93.3187 262.857 93.3187H266.374C268.542 93.3187 269.685 92.1758 269.802 89.8901V85.0549H238.154C235.809 85.0549 234.637 84.0879 234.637 82.1538C234.637 80.2198 235.809 79.2528 238.154 79.2528H269.802V76.7912C269.802 75.4432 270.3 74.4762 271.297 73.8901C272.234 73.304 274.579 72.5714 278.33 71.6923L287.472 69.3187V69.1429H248.615C246.33 69.1429 245.187 68.2344 245.187 66.4176C245.187 65.4799 245.451 64.7766 245.978 64.3077C246.505 63.8388 247.385 63.6044 248.615 63.6044H295.648C297.875 63.6044 299.575 63.8681 300.747 64.3956C301.919 64.8645 302.505 65.5971 302.505 66.5934C302.505 67.5311 300.483 68.8498 296.44 70.5494C292.396 72.2491 286.74 74.1245 279.472 76.1758C277.597 76.7033 276.659 77.5531 276.659 78.7253V79.2528H310.066Z" fill="#07255E"/>
<path d="M207.736 33.2748C205.685 33.2748 204.659 32.2785 204.659 30.2858C204.659 29.4067 205.509 28.2638 207.209 26.8573L209.846 24.2199C211.546 22.5203 212.806 21.6704 213.626 21.6704C215.853 21.6704 216.967 22.784 216.967 25.0111C216.967 26.0074 215.678 27.6192 213.099 29.8463C210.462 32.132 208.674 33.2748 207.736 33.2748ZM216 59.6485C211.018 59.6485 206.623 57.1283 202.813 52.088C198.886 46.8719 196.63 40.8353 196.044 33.9781C195.927 32.7474 195.634 31.8389 195.165 31.2529C194.696 30.6668 193.963 30.3737 192.967 30.3737H151.56C148.864 30.3737 147.516 29.2602 147.516 27.0331C147.516 24.806 148.864 23.6924 151.56 23.6924H195.429C197.714 23.6924 199.385 24.2492 200.44 25.3627C201.553 26.4177 202.139 28.2052 202.198 30.7254C202.491 37.1137 203.985 42.4177 206.681 46.6375C209.26 50.6814 212.044 52.7034 215.033 52.7034C215.912 52.7034 216.586 52.3225 217.055 51.5605C217.524 50.74 217.758 49.5972 217.758 48.132C217.758 46.9598 217.993 46.1393 218.462 45.6704C218.989 45.143 219.81 44.8792 220.923 44.8792C222.974 44.8792 224 45.9635 224 48.132C224 51.121 223.297 53.8463 221.89 56.3078C220.601 58.5349 218.637 59.6485 216 59.6485ZM181.978 99.8243C180.806 99.8243 179.927 99.5019 179.341 98.8573C178.813 98.2712 178.549 97.3041 178.549 95.9562V63.6924H165.187C165.128 71.1356 164.396 77.3481 162.989 82.3298C161.7 86.9012 159.267 91.0038 155.692 94.6375C154.051 96.2785 152.498 97.5093 151.033 98.3298C149.626 99.2089 148.366 99.6485 147.253 99.6485C146.139 99.6485 145.319 99.3554 144.791 98.7693C144.264 98.1833 144 97.2748 144 96.0441C144 94.6961 144.938 93.4946 146.813 92.4397C153.436 88.5715 157.216 82.0953 158.154 73.0111L158.769 63.6924H148.659C145.963 63.6924 144.615 62.6082 144.615 60.4397C144.615 58.2126 145.963 57.099 148.659 57.099H158.857V45.8463C153.055 46.8426 149.421 47.3408 147.956 47.3408C145.67 47.3408 144.527 46.2565 144.527 44.088C144.527 42.2126 145.846 41.1576 148.484 40.9232C156.044 40.2785 163.048 38.9012 169.495 36.7913L171.429 36.4397C172.484 36.2638 173.275 36.469 173.802 37.0551C174.388 37.6411 174.681 38.5203 174.681 39.6924C174.681 41.2748 171.575 42.8573 165.363 44.4397L165.275 57.099H178.549V37.0551C178.549 35.7071 178.813 34.74 179.341 34.154C179.927 33.5093 180.806 33.1869 181.978 33.1869C183.15 33.1869 184 33.5093 184.527 34.154C185.114 34.74 185.407 35.7071 185.407 37.0551V57.099H195.604C198.066 57.099 199.853 57.773 200.967 59.121C202.081 60.4104 202.667 62.491 202.725 65.3627C202.901 73.3921 204.19 79.8682 206.593 84.7913C208.996 89.5386 211.487 91.9122 214.066 91.9122C215.766 91.9122 216.703 89.9488 216.879 86.0221C216.938 83.5019 218.169 82.2419 220.571 82.2419C222.916 82.2419 224.088 83.3847 224.088 85.6704C224.088 89.5386 223.297 92.8206 221.714 95.5166C220.249 98.154 218.081 99.4726 215.209 99.4726C210.403 99.4726 206.037 96.5422 202.11 90.6814C198.125 84.762 196.103 77.1137 196.044 67.7364C196.044 65.099 195.106 63.751 193.231 63.6924H185.407V95.9562C185.407 97.3041 185.114 98.2712 184.527 98.8573C184 99.5019 183.15 99.8243 181.978 99.8243ZM215.648 44.9671C214.886 44.9671 213.89 44.4397 212.659 43.3847L209.67 41.3627C208.615 40.6008 207.824 39.9855 207.297 39.5166C206.828 38.9891 206.593 38.4616 206.593 37.9342C206.593 36.0001 207.678 35.0331 209.846 35.0331C211.018 35.0331 213.48 36.3225 217.231 38.9012C218.344 39.6631 218.901 40.5422 218.901 41.5386C218.901 43.8243 217.817 44.9671 215.648 44.9671ZM207.56 70.0221C205.685 70.0221 204.747 69.0551 204.747 67.121C204.747 66.3005 205.304 65.3627 206.418 64.3078L208.703 61.9342C209.934 60.5862 210.989 59.9122 211.868 59.9122C213.861 59.9122 214.857 60.8792 214.857 62.8133C214.857 63.8682 213.949 65.3041 212.132 67.121C210.198 69.0551 208.674 70.0221 207.56 70.0221ZM215.736 81.2748C214.681 81.2748 213.626 80.6888 212.571 79.5166L209.934 77.2309C208.117 75.5899 207.209 74.447 207.209 73.8023C207.209 71.9268 208.264 70.9891 210.374 70.9891C211.37 70.9891 213.07 71.9268 215.473 73.8023C217.817 75.6192 218.989 77.0844 218.989 78.1979C218.989 80.2492 217.905 81.2748 215.736 81.2748Z" fill="#07255E"/>
<path d="M73.52 93.7212C72.96 92.5612 72.08 91.4812 70.84 90.5612C62.96 84.7612 35.32 102.241 35.32 102.241L0 36.5612C0 36.5612 30.96 21.5212 38.72 28.9612L73.52 93.6812V93.7212Z" fill="#FEB74C"/>
<path d="M51.5601 86.2405L55.3601 93.2805C58.8801 91.5205 62.8401 90.4805 67.0401 90.4805C73.6801 90.4805 79.7201 93.0005 84.3201 97.1205C86.4001 95.2805 88.4401 93.5605 90.4801 91.9205C84.3601 86.0805 76.1201 82.4805 67.0401 82.4805C61.4801 82.4805 56.2401 83.8405 51.6001 86.2405H51.5601Z" fill="#407AFE"/>
<path d="M67.0001 70.4805C59.4001 70.4805 52.2001 72.3605 45.8801 75.6805L49.6801 82.7205C54.8801 80.0405 60.7601 78.4805 67.0401 78.4805C77.4001 78.4805 86.8001 82.6805 93.6801 89.4405C95.9201 87.7605 98.1201 86.2005 100.28 84.7605C91.8801 76.0005 80.1201 70.4805 67.0401 70.4805H67.0001Z" fill="#407AFE"/>
<path d="M57.24 96.7995L61.04 103.88C62.84 103 64.88 102.48 67 102.48C70.28 102.48 73.28 103.68 75.68 105.6C77.56 103.6 79.44 101.68 81.36 99.8795C77.52 96.5595 72.48 94.5195 67 94.5195C63.48 94.5195 60.16 95.3595 57.24 96.8395V96.7995Z" fill="#407AFE"/>
<path d="M62.9202 107.4L67.2402 115.44C69.1202 113 71.0402 110.72 73.0002 108.52C71.3202 107.28 69.2802 106.48 67.0402 106.48C65.5602 106.48 64.2002 106.8 62.9602 107.36L62.9202 107.4Z" fill="#407AFE"/>
<path d="M67.0001 42.48C90.9601 42.48 112.24 54 125.8 71.72C128.72 70.68 130.52 70.2 130.52 70.2L92.7601 0C49.2801 19.48 29.3601 44.96 29.3601 44.96L32.6401 51.04C42.9201 45.6 54.6001 42.52 67.0001 42.52V42.48Z" fill="#407AFE"/>
<path d="M67 46.4805C55.28 46.4805 44.24 49.4005 34.52 54.5205L38.32 61.5605C46.92 57.0405 56.68 54.4805 67.04 54.4805C86.04 54.4805 103.04 63.0805 114.44 76.6005C117.24 75.2005 119.76 74.0805 121.96 73.2005C109.12 56.9605 89.32 46.4805 67.04 46.4805H67Z" fill="#407AFE"/>
<path d="M67.0002 58.4814C57.3202 58.4814 48.2002 60.8814 40.2002 65.0814L44.0002 72.1214C50.8802 68.5214 58.7202 66.4414 67.0402 66.4414C81.5202 66.4414 94.5602 72.6814 103.68 82.5214C106.16 81.0014 108.52 79.6414 110.76 78.4414C100.12 66.2014 84.4802 58.4414 67.0402 58.4414L67.0002 58.4814Z" fill="#407AFE"/>
<path d="M67.24 115.438L54.8 92.238C61.28 89.678 67.64 88.238 70.84 90.558C78.72 96.358 71.92 108.318 67.24 115.398V115.438Z" fill="#74BDC4"/>
<path d="M83.3599 75.6417C95.7532 75.6417 105.8 65.595 105.8 53.2017C105.8 40.8084 95.7532 30.7617 83.3599 30.7617C70.9667 30.7617 60.9199 40.8084 60.9199 53.2017C60.9199 65.595 70.9667 75.6417 83.3599 75.6417Z" fill="white"/>
<path d="M96.0801 51.4813L77.8401 40.9613C76.5201 40.2013 74.8401 41.1613 74.8401 42.6813V63.7613C74.8401 65.2813 76.5201 66.2813 77.8401 65.4813L96.0801 54.9613C97.4001 54.2013 97.4001 52.2813 96.0801 51.4813Z" fill="#FF0000"/>
<path d="M73.52 93.7212C72.96 92.5612 72.08 91.4812 70.84 90.5612C62.96 84.7612 35.32 102.241 35.32 102.241L0 36.5612C0 36.5612 30.96 21.5212 38.72 28.9612L73.52 93.6812V93.7212Z" fill="#FEB74C"/>
</g>
<defs>
<clipPath id="clip0_79_326">
<rect width="495" height="116" fill="white"/>
</clipPath>
</defs>
</svg>
